# xmcd
#
# Track frame offsets:
#	150
#	9617
#	28008
#	47938
#	64304
#	80838
#	103150
#	118967
#	138628
#	148363
#	165160
#	183147
#
# Disc length: 2777 seconds
#
# Revision: 0
# Processed by: cddbd v1.5.2PL0 Copyright (c) Steve Scherf et al.
# Submitted via: EasyCDDAExtractor 10.2.0.1
#
DISCID=b20ad70c
DTITLE=Tim Dillinger - Love Is On My Mind
DYEAR=2004
DGENRE=Soul
TTITLE0=Interlude: You Know I Love You
TTITLE1=The Day You Held Me
TTITLE2=Can't Help But Say
TTITLE3=The Way You Love Me feat Kyhil
TTITLE4=Just Doesn't Matter
TTITLE5=Dreams  (Come Alive)
TTITLE6=Promise To Stay
TTITLE7=Suddenly (Love Is On My Mind) feat Just One
TTITLE8=Segue:'Til The Six Is Nine: A Tone Poem
TTITLE9='Til The Six Is Nine
TTITLE10=You Take The Clouds Away
TTITLE11=In Your Arms
EXTD=
EXTT0=
EXTT1=
EXTT2=
EXTT3=
EXTT4=
EXTT5=
EXTT6=
EXTT7=
EXTT8=
EXTT9=
EXTT10=
EXTT11=
PLAYORDER=
